<svg width="56" height="56" viewBox="0 0 56 56" fill="none" xmlns="http://www.w3.org/2000/svg">
<path d="M56 27.9879L28 0L-1.10104e-06 27.9879L28 55.9757L56 27.9879Z" fill="#DEDEDE"/>
<g clip-path="url(#clip0_126_193)">
<path d="M20.6312 35.9209L17.351 36.1701C17.1923 36.2619 17.0203 36.3538 16.8616 36.4325C16.6632 36.826 16.5177 37.2195 16.4119 37.613L19.8641 37.0096L20.6445 35.934L20.6312 35.9209Z" fill="#72BB49"/>
<path d="M21.1736 35.1602C20.8429 35.2913 20.499 35.4094 20.1551 35.4619C19.8641 35.5143 19.5732 35.5406 19.2822 35.5406C18.9912 35.5406 18.6737 35.5143 18.396 35.4619C18.2505 35.5799 18.105 35.698 17.9595 35.7898L20.8958 35.5668L21.1868 35.1602H21.1736Z" fill="#72BB49"/>
<path d="M16.7559 42.0335C17.3643 42.1385 17.9198 42.204 18.4357 42.1909L18.2373 39.9741L16.7559 42.0335Z" fill="#72BB49"/>
<path d="M20.1948 37.2458L20.8958 41.6794C21.4249 41.4433 21.8614 41.1547 22.2318 40.8268L20.8694 36.3145L20.1948 37.2458Z" fill="#72BB49"/>
<path d="M18.6208 39.4367L18.8589 42.1651C19.4674 42.1258 20.0097 42.0208 20.4858 41.8503L19.8377 37.7446L18.6208 39.4367Z" fill="#72BB49"/>
<path d="M16.1077 40.1054C16.1342 40.9973 16.2797 41.6532 16.3326 41.8762L17.8933 39.6987L16.0945 40.0922L16.1077 40.1054Z" fill="#72BB49"/>
<path d="M19.4938 37.4951L16.2796 38.0592C16.1606 38.6232 16.1077 39.1741 16.1077 39.6726L18.2769 39.2003L19.4938 37.5082V37.4951Z" fill="#72BB49"/>
<path d="M21.5838 35.331L21.1208 35.9737L22.5097 40.5516C22.88 40.1712 23.1842 39.7646 23.3959 39.3711C23.5017 38.7283 23.6472 38.2036 23.7662 37.8364C22.7742 37.233 21.9806 36.3672 21.5706 35.3179L21.5838 35.331Z" fill="#72BB49"/>
<path d="M21.5837 35.3307C21.5837 35.3307 21.5573 35.2258 21.544 35.1733L21.4382 35.0684C21.3589 35.1077 21.2795 35.1339 21.2001 35.1602L20.9091 35.5668L17.9728 35.7898C17.7744 35.9341 17.576 36.0521 17.3908 36.1702L20.6711 35.921L19.8907 36.9966L16.4385 37.6C16.3988 37.7574 16.3459 37.9017 16.3194 38.046L19.5335 37.4819L18.3167 39.174L16.1475 39.6462C16.1475 39.7905 16.1475 39.9348 16.1475 40.0791L17.9463 39.6856L16.3855 41.8631L16.412 41.9549C16.5443 41.9811 16.6765 41.9942 16.8088 42.0205L18.2902 39.9611L18.4886 42.1779C18.6341 42.1779 18.7796 42.1779 18.9119 42.1516L18.6738 39.4233L19.8907 37.7311L20.5388 41.8368C20.6843 41.7843 20.8166 41.7319 20.9488 41.6663L20.2478 37.2327L20.9224 36.3014L22.2847 40.8137C22.3773 40.7219 22.4699 40.63 22.5493 40.5513L21.1605 35.9734L21.6234 35.3307H21.5837Z" fill="#006838"/>
<path d="M14.3618 30.2153C14.1238 30.2547 13.7137 30.3334 13.2375 30.5433L14.3751 31.3565C14.3222 30.9761 14.3089 30.5957 14.3486 30.2153H14.3618Z" fill="#72BB49"/>
<path d="M10.4864 35.4094C10.698 35.5406 11.0816 35.7505 11.5842 35.9341L11.69 34.7798L10.4731 35.4094H10.4864Z" fill="#72BB49"/>
<path d="M15.7241 34.0716L15.3935 36.2229C15.248 36.2622 15.0893 36.2753 14.9305 36.3016L15.3406 33.6388C14.957 33.1534 14.6792 32.6025 14.5073 31.986L12.7878 30.7661C11.7296 31.3826 10.5524 32.6419 10.2747 35.2784C10.2747 35.1735 10.3143 35.0817 10.3276 34.9898L11.4915 34.3996L10.5524 33.8486C10.5921 33.7044 10.6582 33.5732 10.7111 33.442L11.9412 34.1766L13.2772 33.4945L11.4254 32.3139L11.6503 31.986L13.6872 33.2846L14.6528 32.7862L14.8644 33.1666L14.0708 33.5732L13.6475 36.3934C13.5152 36.3934 13.383 36.3671 13.2507 36.354L13.6343 33.8093L12.1529 34.5701L12.0074 36.1048C13.3962 36.5377 15.4596 36.7213 17.5891 35.2784C16.8749 35.0292 16.24 34.6094 15.7241 34.0979V34.0716Z" fill="#72BB49"/>
<path d="M13.6475 33.7832L13.2639 36.328C13.3962 36.3411 13.5284 36.3673 13.6607 36.3673L14.084 33.5471L14.8776 33.1405L14.6659 32.7601L13.7004 33.2586L11.6634 31.96L11.4386 32.2879L13.2903 33.4684L11.9544 34.1505L10.7243 33.416C10.6714 33.5603 10.6053 33.6783 10.5656 33.8226L11.5047 34.3735L10.3407 34.9638C10.3275 35.0687 10.3011 35.1474 10.2878 35.2524C10.2878 35.2524 10.2878 35.2655 10.2878 35.2786C10.3275 35.3048 10.4069 35.3442 10.473 35.3835H10.4862L11.7031 34.7539L11.5973 35.9082C11.7296 35.9738 11.8751 36.0132 12.0338 36.0656L12.1793 34.5178L13.6607 33.757L13.6475 33.7832Z" fill="#006838"/>
<path d="M15.4068 36.2096L15.7375 34.0584C15.6052 33.9272 15.4729 33.7829 15.3539 33.6255L14.9438 36.2883C15.1026 36.262 15.2481 36.2358 15.4068 36.2096Z" fill="#006838"/>
<path d="M14.4015 31.5399C14.4015 31.5399 14.4015 31.4218 14.3883 31.3563L13.2508 30.543L13.1185 30.4512C12.9863 30.5168 12.8408 30.5955 12.7085 30.7004L12.8143 30.7791L14.5338 31.999C14.4941 31.8547 14.4412 31.7104 14.4148 31.553L14.4015 31.5399Z" fill="#006838"/>
<path d="M44.3737 35.8949C44.2414 34.5307 43.8975 33.3633 43.3685 32.4189C42.932 31.6449 42.3764 31.0153 41.7019 30.5562C41.0008 30.0709 40.313 29.8741 39.8766 29.7823C39.8766 29.7561 39.8633 29.7298 39.8501 29.6905C40.485 29.3494 41.0141 28.8379 41.3844 28.2214C41.8738 27.4081 42.0458 26.4374 41.8871 25.5061C41.6886 24.3387 40.9744 23.3811 39.9691 22.7909C40.0485 22.5416 40.1411 22.2924 40.2072 22.0301C40.6834 20.2855 40.4718 18.4753 39.6253 16.9144C38.62 15.0648 37.1121 14.0942 35.2736 14.0942C34.6387 14.0942 33.9774 14.2122 33.2763 14.4483C33.0118 14.1729 32.734 13.9237 32.443 13.6875C30.9352 12.3102 29.1231 11.5757 27.192 11.5757C24.8508 11.5757 22.6684 12.6644 21.0547 14.6451C21.0415 14.6713 21.015 14.6845 21.0018 14.7107C20.4859 14.5533 19.8378 14.4221 19.1368 14.4221C18.4358 14.4221 17.7612 14.5533 17.1527 14.8287C15.592 15.5239 14.5338 17.0193 14.018 19.2886C13.7534 20.4429 13.7799 21.6234 14.0576 22.804C12.8408 23.6959 12.2191 25.1913 12.4704 26.6998C12.6556 27.7491 13.2508 28.6673 14.1106 29.2707C13.6741 29.3494 12.9863 29.5593 12.272 30.0446C11.5974 30.5037 11.0287 31.1334 10.6054 31.9073C10.0764 32.8517 9.73245 34.0191 9.60018 35.3833L9.57373 35.6063L9.75891 35.7375C9.75891 35.7375 10.8567 36.5639 12.4572 36.9312C12.9069 37.0361 13.4228 37.1017 13.9783 37.1017C14.5338 37.1017 15.1687 37.023 15.8036 36.8393C15.6052 37.4165 15.4465 38.0199 15.3671 38.6626C15.1026 40.7089 15.5523 42.3617 15.5787 42.4272L15.6449 42.6634L15.883 42.7158C16.6766 42.8863 17.4305 42.9782 18.1448 42.9782C19.5865 42.9782 20.8563 42.624 21.9409 41.9157C22.47 41.5615 22.8932 41.1549 23.2636 40.7351C23.2636 40.7876 23.2636 40.8401 23.2636 40.8925C23.2768 42.7421 23.9514 45.3261 27.02 47.0707L27.2052 47.1757L27.3904 47.0707C27.3904 47.0707 28.8321 46.2837 29.9828 44.6834C30.631 43.7783 31.2791 42.4797 31.4378 40.8138C32.1521 41.509 32.9589 42.0469 33.8583 42.4141C34.8636 42.8208 35.9746 43.0306 37.1783 43.0306C37.5222 43.0306 37.8661 43.0044 38.2232 42.9782C38.2761 42.9782 38.3158 42.9782 38.3687 42.9782H38.5539L38.6332 42.9519L38.7126 42.6896C38.7126 42.6896 39.1888 41.0631 38.9507 39.0955C38.8845 38.5315 38.7523 37.9936 38.5803 37.4821C39.0697 37.587 39.5459 37.6395 39.9956 37.6395C40.5644 37.6395 41.0802 37.5739 41.5167 37.469C43.1172 37.1017 44.1621 36.3147 44.215 36.2753L44.4002 36.1441L44.3737 35.9211V35.8949ZM13.1979 26.5686C12.9466 25.1388 13.6608 23.7615 14.8777 23.1057C14.5074 21.8727 14.4545 20.6396 14.719 19.4329C15.1819 17.3997 16.1078 16.0618 17.457 15.4584C18.8855 14.8287 20.4066 15.196 21.2795 15.5239C21.3854 15.3665 21.5044 15.2223 21.6234 15.078C23.1181 13.2678 25.1021 12.2709 27.2184 12.2709C28.9776 12.2709 30.631 12.953 32.0066 14.2122C32.3901 14.527 32.7605 14.8812 33.0912 15.2747C35.644 14.2122 37.7338 14.9074 39.0168 17.2554C39.784 18.659 39.9691 20.2855 39.5459 21.8595C39.4268 22.2924 39.2946 22.7253 39.1359 23.1319C40.1808 23.5385 41.0008 24.4699 41.1993 25.6373C41.477 27.2507 40.5379 28.7854 39.03 29.3232C39.0962 29.5331 39.1623 29.743 39.1888 29.9528C39.5856 32.209 38.0116 34.3602 35.6704 34.7668C35.4191 34.8062 35.1546 34.8324 34.9165 34.8324C34.0567 34.8324 33.2367 34.5832 32.5489 34.1372C32.0991 36.013 30.3796 37.587 28.1046 37.9674C27.7475 38.033 27.3904 38.0592 27.0465 38.0592C24.5466 38.0592 22.3906 36.5245 22.007 34.3077C21.9806 34.1897 21.9673 34.0585 21.9541 33.9404C21.4118 34.3602 20.7505 34.6619 20.023 34.7799C19.7717 34.8193 19.5071 34.8455 19.269 34.8455C17.2321 34.8455 15.4332 33.4289 15.0761 31.4219C14.9306 30.6087 15.0497 29.8217 15.3539 29.1133C14.2561 28.7329 13.3963 27.7754 13.1847 26.5686H13.1979ZM36.2921 42.178C36.1333 42.1649 35.9879 42.1387 35.8424 42.1124C35.2736 42.0206 34.7313 41.8763 34.2154 41.6665C34.07 41.6009 33.9245 41.5484 33.779 41.4828C33.316 41.2598 32.8928 40.9844 32.496 40.6564C32.3505 40.5384 32.2182 40.4203 32.0859 40.2892C31.9536 40.1711 31.8214 40.053 31.7023 39.9219C31.041 39.1873 30.6177 38.4396 30.3664 37.8887C30.7632 37.6657 31.1468 37.4165 31.4775 37.1279C31.9404 36.7213 32.324 36.2622 32.615 35.7637C32.6944 35.6326 32.7605 35.4883 32.8266 35.3571C32.8531 35.3046 32.8928 35.239 32.9192 35.1866L32.9721 35.1472C33.5806 35.3964 34.2419 35.5407 34.9032 35.5407C35.1942 35.5407 35.4985 35.5145 35.7762 35.462C35.9746 35.4227 36.1598 35.3571 36.3582 35.3046C36.4376 35.3965 36.5169 35.4752 36.5963 35.567C36.7153 35.7113 36.8344 35.8687 36.9402 36.0261C37.3635 36.6426 37.6809 37.3247 37.8925 38.0724C37.9322 38.2298 37.9719 38.3872 38.0116 38.5446C38.0512 38.7544 38.1042 38.9512 38.1306 39.1611C38.1835 39.5415 38.1967 39.8956 38.1967 40.2367C38.1967 40.3941 38.1967 40.5384 38.1835 40.6958C38.1571 41.2467 38.0909 41.6927 38.038 42.0075C38.038 42.0731 38.0116 42.1518 37.9983 42.2043C37.8661 42.2043 37.747 42.2043 37.628 42.2043C37.165 42.2305 36.7153 42.2174 36.2788 42.178H36.2921ZM12.0207 36.0917C11.8752 36.0523 11.7297 35.9998 11.5842 35.9474C11.0816 35.7506 10.698 35.5407 10.4864 35.4096H10.4732C10.4732 35.4096 10.3409 35.344 10.288 35.3046C10.288 35.3046 10.288 35.2915 10.288 35.2784C10.5657 32.6418 11.7429 31.3826 12.8011 30.7661L12.6953 30.6874C12.8275 30.5956 12.973 30.5169 13.1053 30.4382L13.2376 30.53C13.7138 30.3201 14.1238 30.2414 14.3619 30.2021C14.3222 30.5825 14.3354 30.9628 14.3883 31.3432C14.3883 31.4088 14.3883 31.4613 14.4015 31.5269C14.428 31.6843 14.4809 31.8286 14.5206 31.9729C14.6925 32.5894 14.9703 33.1403 15.3539 33.6256C15.4729 33.783 15.6052 33.9142 15.7375 34.0585C16.2533 34.5832 16.8882 34.9898 17.6025 35.239C15.4729 36.6819 13.4095 36.5114 12.0207 36.0654V36.0917ZM22.5096 40.5515C22.4171 40.6433 22.3377 40.7351 22.2451 40.8138C21.8748 41.1418 21.425 41.4435 20.9092 41.6665C20.7769 41.7189 20.6446 41.7845 20.4992 41.837C20.023 42.0075 19.4807 42.1124 18.8722 42.1518C18.7267 42.1518 18.5945 42.1649 18.449 42.178C17.9331 42.178 17.3776 42.1256 16.7692 42.0206C16.6369 41.9944 16.5179 41.9813 16.3724 41.955C16.3724 41.955 16.3724 41.9157 16.3459 41.8632C16.293 41.6402 16.1475 40.9712 16.121 40.0924C16.121 39.9481 16.121 39.8038 16.121 39.6595C16.121 39.1611 16.174 38.6233 16.293 38.0461C16.3194 37.9018 16.3724 37.7444 16.412 37.6001C16.5179 37.2066 16.6766 36.8131 16.8618 36.4196C17.0205 36.3409 17.1924 36.2622 17.3511 36.1572C17.5496 36.0392 17.748 35.9211 17.9331 35.7768C18.0786 35.6719 18.2241 35.567 18.3696 35.4489C18.6606 35.5014 18.9516 35.5276 19.2558 35.5276C19.56 35.5276 19.8378 35.5014 20.1288 35.4489C20.4859 35.3833 20.8166 35.2784 21.1473 35.1472C21.2266 35.121 21.306 35.0816 21.3854 35.0554L21.4912 35.1603C21.4912 35.1603 21.5176 35.2653 21.5309 35.3177C21.9409 36.3671 22.7213 37.2197 23.7265 37.8362C23.6075 38.2035 23.4488 38.7282 23.3562 39.371C23.1313 39.7645 22.8403 40.158 22.47 40.5515H22.5096ZM30.1151 42.7945C30.049 42.9388 29.9828 43.07 29.9167 43.2012C29.758 43.516 29.5728 43.8308 29.3612 44.1325C29.2421 44.303 29.1099 44.4473 28.9908 44.5916C28.8982 44.6965 28.8056 44.8277 28.7131 44.9195C28.1311 45.5491 27.5755 45.9426 27.2713 46.1525C27.2581 46.1525 27.2316 46.1788 27.2184 46.1919C27.0861 46.1132 26.9803 46.0214 26.8481 45.9426C26.319 45.5754 25.856 45.1819 25.4725 44.7359C25.3799 44.6309 25.2873 44.5129 25.2079 44.3948C24.8773 43.9488 24.6259 43.4635 24.4408 42.9388C24.3879 42.7945 24.335 42.6502 24.2953 42.4928C24.163 41.9944 24.0969 41.4697 24.0836 40.9057C24.0836 40.6827 24.0969 40.4859 24.1101 40.276C24.1762 39.4103 24.3482 38.6889 24.4937 38.2166C24.9037 38.3872 25.3402 38.5315 25.8031 38.6233C25.9751 38.6626 26.1603 38.6757 26.3322 38.6889C26.5438 38.7151 26.7422 38.7413 26.9671 38.7413C26.9936 38.7413 27.02 38.7413 27.0332 38.7413C27.1523 38.7413 27.2713 38.7151 27.3904 38.7151C27.6681 38.702 27.9327 38.6889 28.2104 38.6495C28.2104 38.6495 28.2104 38.6495 28.2237 38.6495C28.4088 38.6233 28.5676 38.5708 28.7527 38.5183C29.0437 38.4396 29.3347 38.3478 29.6125 38.2429C29.8373 38.7151 30.168 39.3185 30.6574 39.9481C30.6574 39.9743 30.6574 40.0137 30.6574 40.0399C30.6574 40.2236 30.6574 40.3941 30.6442 40.5646C30.5913 41.3385 30.4061 42.0862 30.1151 42.7814V42.7945ZM38.2761 36.6819C38.1571 36.4196 38.0248 36.1572 37.8661 35.908C37.6677 35.5801 37.4296 35.2784 37.1783 34.9767C37.5619 34.7931 37.9322 34.557 38.2497 34.2815C38.3819 34.1634 38.5142 34.0323 38.6332 33.888C38.7655 33.7437 38.8978 33.6125 39.0168 33.4551C39.2417 33.1403 39.4136 32.8124 39.5591 32.4713C39.6517 32.2352 39.7443 32.0122 39.7972 31.763C39.8766 31.4482 39.9295 31.1203 39.9295 30.7923C40.1543 30.8448 40.4585 30.9235 40.776 31.0678L40.9083 30.976C41.0405 31.0416 41.186 31.1203 41.3183 31.2252L41.2125 31.3039C42.2706 31.9204 43.4478 33.1796 43.7256 35.8162C43.7256 35.8162 43.7256 35.8293 43.7256 35.8424C43.6727 35.8687 43.6065 35.908 43.5404 35.9474H43.5272C43.3156 36.0654 42.932 36.2753 42.4294 36.4721C42.2971 36.5376 42.1516 36.577 41.9929 36.6295C41.0141 36.9312 39.6914 37.1148 38.2497 36.6819H38.2761Z" fill="white"/>
<path d="M39.9558 30.7925C39.9558 31.1204 39.9028 31.4483 39.8235 31.7632L40.8023 31.0679C40.4848 30.9237 40.1938 30.8449 39.9558 30.7925Z" fill="#72BB49"/>
<path d="M42.0192 36.6165L41.8737 35.0818L40.3923 34.321L40.7759 36.8657C40.6436 36.8789 40.5114 36.9051 40.3791 36.9051L39.9558 34.0849L39.1622 33.6783L39.3738 33.2979L40.3394 33.7963L42.3764 32.4977L42.6012 32.8257L40.7494 34.0062L42.0854 34.6883L43.3155 33.9537C43.3684 34.098 43.4345 34.2161 43.4742 34.3604L42.5351 34.9113L43.699 35.5016C43.7123 35.6065 43.7387 35.6852 43.7519 35.7901C43.4742 33.1536 42.297 31.8943 41.2388 31.2778L39.5722 32.4584C39.4268 32.7994 39.2548 33.1274 39.0299 33.4422C38.9109 33.5996 38.7786 33.7307 38.6464 33.875L39.0961 36.8133C38.9374 36.787 38.7919 36.7608 38.6331 36.7346L38.2628 34.2685C37.9321 34.544 37.575 34.7801 37.1914 34.9638C37.4427 35.2654 37.6808 35.5671 37.8792 35.8951C38.0247 36.1443 38.1702 36.3935 38.2892 36.669C39.731 37.1018 41.0404 36.9182 42.0325 36.6034L42.0192 36.6165Z" fill="#72BB49"/>
<path d="M42.4425 36.459C42.9452 36.2622 43.3287 36.0524 43.5404 35.9343L42.3235 35.3047L42.4293 36.459H42.4425Z" fill="#72BB49"/>
<path d="M42.535 34.9243L43.4741 34.3734C43.4344 34.2291 43.3683 34.0979 43.3154 33.9667L42.0853 34.7013L40.7493 34.0192L42.6011 32.8387L42.3762 32.5107L40.3393 33.8093L39.3737 33.3109L39.1621 33.6913L39.9557 34.0979L40.379 36.9181C40.5113 36.9181 40.6435 36.8919 40.7758 36.8788L40.3922 34.334L41.8736 35.0948L42.0191 36.6295C42.1646 36.5902 42.3101 36.5377 42.4556 36.4852L42.3498 35.3309L43.5667 35.9606H43.5799C43.5799 35.9606 43.7122 35.895 43.7651 35.8556C43.7651 35.8556 43.7651 35.8425 43.7651 35.8294C43.7651 35.7244 43.7254 35.6326 43.7122 35.5408L42.5482 34.9505L42.535 34.9243Z" fill="#006838"/>
<path d="M41.3446 31.2253C41.2124 31.1335 41.0669 31.0548 40.9346 30.9761L40.8023 31.0679L39.8235 31.7631C39.7574 31.9992 39.678 32.2353 39.5854 32.4714L41.252 31.2909L41.3579 31.2122L41.3446 31.2253Z" fill="#006838"/>
<path d="M38.633 36.7345C38.7785 36.7739 38.9373 36.787 39.096 36.8132L38.6463 33.875C38.5272 34.0062 38.395 34.1505 38.2627 34.2685L38.633 36.7345Z" fill="#006838"/>
<path d="M26.9802 38.7546C26.7686 38.7546 26.5569 38.7284 26.3453 38.7021L24.0835 40.9189C24.0835 41.483 24.1629 42.0077 24.2951 42.5061L26.9537 39.9089L26.9802 38.7546Z" fill="#72BB49"/>
<path d="M30.6705 39.9479C30.1811 39.3183 29.8505 38.7149 29.6256 38.2427C29.3479 38.3607 29.0569 38.4526 28.7659 38.5181L30.6705 40.0397C30.6705 40.0397 30.6705 39.9741 30.6705 39.9479Z" fill="#72BB49"/>
<path d="M27.3374 42.611L28.9908 44.5917C29.1098 44.4474 29.2421 44.3031 29.3611 44.1326C29.5727 43.8309 29.7579 43.5161 29.9166 43.2013L27.3771 40.5254L27.3374 42.611Z" fill="#72BB49"/>
<path d="M26.9537 40.5122L24.4539 42.952C24.639 43.4767 24.8903 43.962 25.221 44.408L26.9141 42.5978L26.9537 40.5122Z" fill="#72BB49"/>
<path d="M27.2844 46.1523C27.5886 45.9556 28.1442 45.5489 28.7262 44.9193L27.3373 43.2534L27.2844 46.1523Z" fill="#72BB49"/>
<path d="M24.5069 38.23C24.3481 38.7022 24.1762 39.4236 24.1233 40.2894L25.8163 38.6366C25.3534 38.5448 24.9169 38.4136 24.5069 38.23Z" fill="#72BB49"/>
<path d="M25.4856 44.736C25.8692 45.182 26.3189 45.5886 26.8612 45.9428L26.9141 43.2275L25.4988 44.736H25.4856Z" fill="#72BB49"/>
<path d="M28.2235 38.6494C27.9457 38.7019 27.6812 38.7019 27.4034 38.715L27.377 39.9087L30.1149 42.7813C30.4191 42.073 30.5911 41.3384 30.644 40.5645L28.2367 38.6494C28.2367 38.6494 28.2367 38.6494 28.2235 38.6494Z" fill="#72BB49"/>
<path d="M27.4035 38.728C27.2844 38.728 27.1654 38.7543 27.0464 38.7543C27.0199 38.7543 26.9935 38.7543 26.9802 38.7543L26.9538 39.9086L24.2952 42.5058C24.3348 42.6632 24.3878 42.8075 24.4407 42.9518L26.9405 40.512L26.9009 42.5976L25.2078 44.4078C25.2872 44.5258 25.3798 44.6308 25.4724 44.7488L26.8876 43.2403L26.8347 45.9556C26.9538 46.0343 27.0728 46.1261 27.2051 46.2048C27.2183 46.2048 27.2448 46.1786 27.258 46.1655L27.3109 43.2666L28.6997 44.9324C28.7923 44.8275 28.8849 44.7095 28.9775 44.6045L27.3241 42.6238L27.3638 40.5382L29.9034 43.2141C29.9695 43.0829 30.0356 42.9386 30.1018 42.8075L27.3638 39.9348L27.3903 38.7411L27.4035 38.728Z" fill="#006838"/>
<path d="M30.6706 40.0401L28.7659 38.5186C28.5939 38.5579 28.422 38.6104 28.2368 38.6497L30.6441 40.5648C30.6441 40.3943 30.6573 40.2107 30.6573 40.0401H30.6706Z" fill="#006838"/>
<path d="M25.8164 38.623L24.1233 40.2758C24.1101 40.4857 24.0836 40.6824 24.0969 40.9054L26.3587 38.6886C26.1735 38.6755 26.0015 38.6493 25.8296 38.623H25.8164Z" fill="#006838"/>
<path d="M36.3714 39.8433L38.2099 40.2368C38.2099 39.8958 38.1967 39.5416 38.1438 39.1612C38.1174 38.9513 38.0777 38.7414 38.0248 38.5447L35.009 38.1118L36.3714 39.8564V39.8433Z" fill="#72BB49"/>
<path d="M36.4243 40.6436L36.292 42.1783C36.7285 42.2176 37.1782 42.2307 37.6411 42.2045L36.4243 40.6436Z" fill="#72BB49"/>
<path d="M34.6386 38.3608L34.2153 41.6664C34.718 41.8762 35.2603 42.0205 35.8422 42.1123L36.0142 40.1185L34.6518 38.374L34.6386 38.3608Z" fill="#72BB49"/>
<path d="M38.0512 41.9943C38.1174 41.6795 38.1703 41.2335 38.1967 40.6826L36.7947 40.394L38.038 41.9943H38.0512Z" fill="#72BB49"/>
<path d="M32.6148 35.7637C32.3106 36.2621 31.9402 36.7212 31.4773 37.1279C31.1334 37.4296 30.763 37.6657 30.3662 37.8887C30.6175 38.4396 31.0408 39.1873 31.7021 39.9218C31.8212 40.053 31.9534 40.171 32.0857 40.2891L32.6545 35.8161L32.6148 35.7637Z" fill="#72BB49"/>
<path d="M33.0514 36.3145L32.4958 40.6562C32.8927 40.9842 33.3291 41.2596 33.7789 41.4826L34.255 37.8623L33.0514 36.3145Z" fill="#72BB49"/>
<path d="M33.0118 35.5278L36.6095 35.554C36.5301 35.4622 36.4508 35.3704 36.3714 35.2917C36.1862 35.3442 35.9878 35.4097 35.7894 35.4491C35.4985 35.5016 35.2075 35.5278 34.9165 35.5278C34.2419 35.5278 33.5938 35.3835 32.9853 35.1343L32.9324 35.1736C32.9324 35.1736 32.8663 35.2917 32.8398 35.3442H32.8663L33.0118 35.5147V35.5278Z" fill="#72BB49"/>
<path d="M33.3557 35.9736L34.6123 37.587L37.9058 38.0593C37.6941 37.3116 37.3767 36.6295 36.9534 36.013L33.3557 35.9868V35.9736Z" fill="#72BB49"/>
<path d="M38.2364 42.9784C38.329 42.9784 38.4215 42.9784 38.5141 42.9784L38.5538 42.9521H38.3686C38.3686 42.9521 38.2761 42.9784 38.2231 42.9784H38.2364Z" fill="#006838"/>
<path d="M37.6411 42.2044C37.7602 42.2044 37.8925 42.2044 38.0115 42.2044C38.0115 42.1519 38.038 42.0732 38.0512 42.0076L36.8079 40.4073L38.2099 40.6959C38.2099 40.5516 38.2231 40.4073 38.2231 40.2368L36.3846 39.8433L35.0222 38.0987L38.038 38.5316C37.9983 38.3742 37.9586 38.2168 37.9189 38.0594L34.6254 37.5871L33.3689 35.9737L36.9666 36C36.8608 35.8426 36.7417 35.6983 36.6227 35.5409L33.025 35.5146L32.8795 35.3179H32.853C32.7869 35.4753 32.7207 35.6196 32.6414 35.7507L32.6811 35.8032L32.1123 40.2762C32.2446 40.4073 32.3768 40.5254 32.5223 40.6434L33.0779 36.3017L34.2815 37.8495L33.8053 41.4698C33.9508 41.5354 34.0963 41.601 34.2418 41.6535L34.6651 38.3479L36.0275 40.0925L35.8555 42.0863C36.001 42.1126 36.1465 42.1388 36.3052 42.1519L36.4375 40.6172L37.6544 42.1781L37.6411 42.2044Z" fill="#006838"/>
<path d="M30.3928 35.0028C30.9484 34.3207 31.1865 33.5205 31.0542 32.7466C30.9351 32.0514 30.5251 31.448 29.9299 31.0151C28.7659 31.2906 27.6813 31.4087 26.7951 31.448C26.6893 31.448 26.5703 31.448 26.4645 31.448C25.9089 31.448 25.3269 31.3824 24.7185 31.2644C24.5333 31.4218 24.3614 31.5792 24.2159 31.7628C23.6604 32.4449 23.4223 33.2451 23.5545 34.019C23.8058 35.4487 25.274 36.485 27.0464 36.485C27.311 36.485 27.5755 36.4588 27.8268 36.4194C28.8717 36.2358 29.7712 35.7373 30.3796 34.9896L30.3928 35.0028Z" fill="#E91C58"/>
<path d="M23.6332 30.1493C23.6332 30.1493 23.5939 30.1233 23.5808 30.1104C23.5808 30.1363 23.5808 30.1623 23.5808 30.1883C23.5939 30.1753 23.607 30.1623 23.6332 30.1493Z" fill="#231F20"/>
<path d="M16.769 29.2969C16.4251 29.8478 16.2796 30.5168 16.3986 31.1989C16.6367 32.55 17.8404 33.5338 19.2821 33.5338C19.454 33.5338 19.6392 33.5206 19.8112 33.4944C21.3058 33.2321 22.364 31.9466 22.2846 30.5299C22.0465 30.425 21.8084 30.32 21.5571 30.202C20.5651 29.7167 19.6128 29.1133 18.753 28.4181C18.6075 28.3 18.4488 28.1688 18.3033 28.0508C17.642 28.2869 17.0997 28.7329 16.7558 29.2969H16.769Z" fill="#E91C58"/>
<path d="M15.9093 28.195C16.0945 28.2474 16.2796 28.2605 16.478 28.2605C16.6103 28.2605 16.7426 28.2605 16.8748 28.2212C17.2981 28.1556 17.6685 27.972 17.9594 27.7096C17.7214 27.4866 17.4965 27.2636 17.2849 27.0407C17.1261 26.8701 16.9807 26.7127 16.8352 26.5422C16.1606 25.7421 15.6315 24.9157 15.2612 24.0762C14.5072 24.5484 14.0707 25.4535 14.2295 26.3717C14.322 26.8964 14.5998 27.3817 15.0231 27.7227C15.2876 27.9457 15.5918 28.09 15.9225 28.1818L15.9093 28.195Z" fill="#E91C58"/>
<path d="M31.3452 28.4708C31.6494 28.1822 31.9404 27.8674 32.205 27.5264C31.8743 27.8018 31.5833 28.1166 31.3452 28.4708Z" fill="#231F20"/>
<path d="M36.9005 26.9488C36.6756 27.2111 36.4508 27.4472 36.1995 27.6833C36.2788 27.7751 36.3582 27.8538 36.4508 27.9326C36.8608 28.2736 37.3767 28.4572 37.919 28.4572C38.0512 28.4572 38.1835 28.4572 38.3158 28.4179C38.3951 28.4048 38.4877 28.3785 38.5671 28.3654C39.6649 28.0506 40.3792 26.9488 40.1808 25.7945C40.0882 25.2698 39.8104 24.7844 39.3871 24.4434C39.1887 24.286 38.9771 24.1548 38.739 24.063C38.2496 25.1255 37.628 26.083 36.9005 26.9356V26.9488Z" fill="#E91C58"/>
<path d="M32.0196 30.3596C31.9931 30.5564 31.9931 30.7662 32.0196 30.9761C32.0196 31.0417 32.0328 31.1204 32.046 31.186C32.1254 31.6451 32.3238 32.0648 32.6016 32.4059C33.1439 33.088 33.9904 33.5077 34.9295 33.5077C35.1015 33.5077 35.2866 33.4946 35.4586 33.4684C37.0723 33.1929 38.1701 31.7107 37.8923 30.176C37.8527 29.9398 37.7733 29.7037 37.6807 29.4939C36.8077 29.4283 36.0009 29.0216 35.4321 28.3789C35.0486 28.6806 34.6517 28.9692 34.2285 29.2446C33.501 29.7037 32.7603 30.071 32.0328 30.3596H32.0196Z" fill="#E91C58"/>
<path d="M24.5597 29.5068C25.3798 29.9396 26.2792 30.1757 27.2183 30.1757C28.2765 30.1757 29.2685 29.874 30.1679 29.3494C30.5779 29.1001 30.9747 28.8116 31.3451 28.4705C31.5832 28.1163 31.8609 27.8015 32.2048 27.5261C33.1572 26.2931 33.8053 24.6928 34.0037 22.9351C33.2895 24.2992 32.1519 25.3749 30.6838 26.1094C29.9563 26.4636 29.2817 26.6735 28.7923 26.7915C28.8188 26.8177 28.832 26.844 28.8452 26.8702L29.2288 27.3949L28.5939 27.5654C28.2897 27.6441 27.9458 27.6835 27.549 27.6835C26.1998 27.6835 24.4407 27.1981 22.9328 26.0701C22.0201 25.388 20.9752 24.2992 20.4197 22.6465C20.6842 25.7421 22.3244 28.3525 24.5729 29.5199L24.5597 29.5068Z" fill="#E91C58"/>
<path d="M34.7709 19.0263C34.9826 19.8921 35.0884 20.7972 35.0884 21.7285C35.0884 23.4993 34.6916 25.1914 33.9376 26.6605C33.6202 27.277 33.2498 27.8542 32.8134 28.3789C32.5488 28.7068 32.2578 29.0085 31.9536 29.284C32.1652 29.1921 32.3769 29.1003 32.5885 28.9954C33.1837 28.6937 33.7789 28.3395 34.3609 27.9198C34.5196 27.8017 34.6916 27.6705 34.8503 27.5394C35.1413 27.3033 35.4191 27.0409 35.6836 26.7655C35.7365 26.713 35.7762 26.6736 35.8291 26.6212C36.5169 25.8866 37.1518 25.0078 37.6676 23.9584C37.8264 23.6305 37.9851 23.2763 38.1306 22.909C38.2893 22.4893 38.4348 22.0564 38.5538 21.5973C38.911 20.2856 38.7522 18.9214 38.1173 17.754C37.1386 15.9569 35.6571 15.4191 33.7128 16.1406C34.1757 16.862 34.5064 17.6622 34.6651 18.4623C34.7048 18.6591 34.7445 18.8558 34.7577 19.0526L34.7709 19.0263Z" fill="#E91C58"/>
<path d="M16.2135 23.7485C16.5971 24.588 17.1129 25.3226 17.6155 25.8997C17.8404 26.1621 18.0785 26.4113 18.3166 26.6605C18.3959 26.7392 18.4885 26.831 18.5679 26.9097C18.8324 27.159 19.097 27.382 19.3747 27.6181C19.4938 27.7099 19.5996 27.8017 19.7186 27.8804C20.3932 28.3789 21.1075 28.8249 21.8482 29.2053C22.2185 29.402 22.6021 29.5725 22.9857 29.7168C22.4963 29.3364 22.0333 28.8904 21.6101 28.3789C21.1868 27.8673 20.8165 27.3033 20.5122 26.6999C19.7451 25.2176 19.3483 23.5124 19.3483 21.7285C19.3483 19.8002 19.8244 17.9638 20.7106 16.4029C20.2874 16.2586 19.7319 16.1274 19.1499 16.1274C18.7266 16.1274 18.2901 16.193 17.8669 16.3898C16.8219 16.8489 16.1077 17.9507 15.7109 19.656C15.4596 20.7709 15.5522 21.8203 15.8299 22.7516C15.9357 23.0927 16.0548 23.4206 16.2003 23.7354L16.2135 23.7485Z" fill="#E91C58"/>
<path d="M23.475 25.3354C24.467 26.07 25.4855 26.4242 26.1733 26.5947C26.6627 26.7127 27.1389 26.7783 27.5621 26.7783H27.5886L27.0463 26.3586C27.0463 26.3586 27.0331 26.3586 27.0198 26.3717C27.0198 26.3717 23.6867 23.9319 23.8983 21.4921C23.8983 21.4528 23.8983 21.4134 23.9115 21.3872C24.057 19.7738 25.4194 18.5145 27.086 18.5145C28.7526 18.5145 29.9694 19.6557 30.2207 21.1379C30.2207 21.1379 30.3398 21.5052 30.2207 22.148C30.1811 22.3841 30.1282 22.5939 30.0488 22.8038C29.7314 23.6696 29.0039 24.8239 27.3902 26.0831L27.8664 26.0438C27.8664 26.0438 29.0171 25.9257 30.2869 25.2961C31.9667 24.4697 33.091 23.1711 33.6333 21.4659C33.8052 20.9281 33.8846 20.4296 33.8978 19.9443C33.673 18.6981 33.2365 17.5701 32.628 16.5994C32.4429 16.2977 32.2312 16.0091 32.0196 15.7468C31.4244 15.0253 30.7234 14.4351 29.9562 14.0153C29.3081 13.7267 28.6467 13.5693 28.0251 13.5693C28.0251 13.5693 27.9986 13.5693 27.9854 13.5693C25.7368 13.5956 23.7528 14.3301 22.5227 15.6025C22.5095 15.6156 22.4962 15.6287 22.483 15.6418C22.4433 15.6943 22.4036 15.7337 22.364 15.7861C22.1391 16.0616 21.9407 16.3502 21.7555 16.6519C21.6762 16.783 21.5968 16.9142 21.5174 17.0585C21.081 17.9898 20.8693 19.1048 20.909 20.3771C20.9884 22.9875 22.3375 24.5353 23.4618 25.3617L23.475 25.3354Z" fill="#E91C58"/>
<path d="M27.0992 20.3115C26.3453 20.3115 25.7368 20.9149 25.7368 21.6626C25.7368 22.4103 26.3453 23.0137 27.0992 23.0137C27.8531 23.0137 28.4616 22.4103 28.4616 21.6626C28.4616 20.9149 27.8531 20.3115 27.0992 20.3115Z" fill="#F5F8F4"/>
<path d="M15.367 29.1134C15.0628 29.8218 14.9437 30.6088 15.0892 31.4221C15.4464 33.429 17.232 34.8456 19.2822 34.8456C19.5335 34.8456 19.7848 34.8194 20.0361 34.78C20.7636 34.6489 21.4249 34.3603 21.9672 33.9405C21.9672 34.0586 21.9937 34.1898 22.0201 34.3078C22.4037 36.5246 24.5597 38.0593 27.0596 38.0593C27.4035 38.0593 27.7606 38.0331 28.1177 37.9675C30.3928 37.574 32.1123 35.9999 32.562 34.1373C33.2498 34.5833 34.0698 34.8325 34.9296 34.8325C35.1809 34.8325 35.4322 34.8063 35.6835 34.7669C38.0247 34.3603 39.5987 32.2091 39.2019 29.9529C39.1622 29.7299 39.1093 29.5201 39.0432 29.3233C40.551 28.7986 41.4901 27.2508 41.2124 25.6374C41.0007 24.4568 40.1939 23.5386 39.149 23.132C39.3077 22.7254 39.44 22.2925 39.559 21.8596C39.9823 20.2987 39.7971 18.6591 39.0299 17.2555C37.7469 14.9207 35.6571 14.2255 33.1043 15.2748C32.7736 14.8813 32.4165 14.5271 32.0197 14.2123C30.6573 12.9531 28.9907 12.271 27.2315 12.271C25.1152 12.271 23.118 13.2679 21.6366 15.0781C21.5175 15.2224 21.3985 15.3666 21.2927 15.5241C20.4329 15.1961 18.8986 14.8288 17.4701 15.4585C16.1209 16.0619 15.1951 17.3998 14.7321 19.433C14.4543 20.6397 14.5073 21.8728 14.8908 23.1058C13.674 23.7616 12.9597 25.1389 13.211 26.5687C13.4226 27.7886 14.2824 28.733 15.3802 29.1134H15.367ZM18.3034 28.0378C18.4489 28.169 18.5944 28.2871 18.7531 28.4051C19.6128 29.0872 20.5652 29.6906 21.5572 30.189C21.7953 30.3071 22.0334 30.412 22.2847 30.517C22.3508 31.9336 21.3059 33.2191 19.8112 33.4814C19.6393 33.5077 19.4541 33.5208 19.2822 33.5208C17.8537 33.5208 16.6368 32.537 16.3987 31.1859C16.2797 30.5039 16.4252 29.8349 16.7691 29.284C17.113 28.7199 17.6553 28.2739 18.3166 28.0378H18.3034ZM20.4197 22.6336C20.9752 24.2863 22.0201 25.375 22.9328 26.0571C24.4407 27.1721 26.2131 27.6705 27.549 27.6705C27.9326 27.6705 28.2897 27.6312 28.5939 27.5525L29.2288 27.382L28.8452 26.8573C28.8452 26.8573 28.8055 26.8179 28.7923 26.7786C29.2817 26.6605 29.9563 26.4506 30.6838 26.0965C32.1652 25.375 33.2895 24.2863 34.0037 22.9221C33.8053 24.6798 33.1572 26.2801 32.2048 27.5131C31.9403 27.8542 31.6493 28.169 31.3451 28.4576C30.9747 28.7986 30.5912 29.1003 30.1679 29.3364C29.2685 29.8611 28.2765 30.1628 27.2183 30.1628C26.2792 30.1628 25.3798 29.9267 24.5597 29.4938C22.3244 28.3264 20.6842 25.7161 20.4065 22.6204L20.4197 22.6336ZM35.419 28.392C35.9877 29.0347 36.7946 29.4414 37.6676 29.5069C37.7601 29.7168 37.8395 29.9529 37.8792 30.189C38.1437 31.7237 37.0591 33.206 35.4454 33.4814C35.2735 33.5077 35.0883 33.5208 34.9164 33.5208C33.9773 33.5208 33.1175 33.0879 32.5884 32.419C32.3107 32.0648 32.1255 31.6582 32.0329 31.1991C32.0329 31.1335 32.0064 31.0548 32.0064 30.9892C31.98 30.7793 31.9932 30.5826 32.0064 30.3727C32.7339 30.0841 33.4879 29.7168 34.2021 29.2577C34.6254 28.9954 35.0222 28.7068 35.4058 28.392H35.419ZM27.0464 36.4984C25.2739 36.4984 23.8058 35.4621 23.5545 34.0324C23.4222 33.2585 23.647 32.4583 24.2158 31.7762C24.3613 31.5926 24.5332 31.4221 24.7184 31.2778C25.3269 31.3958 25.9088 31.4614 26.4644 31.4614C26.5702 31.4614 26.6892 31.4614 26.795 31.4614C27.6812 31.4221 28.7659 31.304 29.9298 31.0285C30.525 31.4614 30.9351 32.0648 31.0541 32.76C31.1864 33.5339 30.9615 34.3341 30.3928 35.0162C29.7843 35.7638 28.8717 36.2623 27.84 36.4459C27.5754 36.4853 27.3109 36.5115 27.0596 36.5115L27.0464 36.4984ZM23.6338 30.1497C23.6338 30.1497 23.6074 30.1759 23.5809 30.189C23.5809 30.1628 23.5809 30.1366 23.5809 30.1103C23.5941 30.1103 23.6206 30.1366 23.6338 30.1497ZM39.3871 24.4568C39.7971 24.7979 40.0881 25.2832 40.1807 25.8079C40.3791 26.9622 39.6648 28.0509 38.567 28.3789C38.4876 28.4051 38.4083 28.4182 38.3157 28.4313C38.1834 28.4576 38.0511 28.4707 37.9189 28.4707C37.3898 28.4707 36.8739 28.2871 36.4507 27.946C36.3581 27.8673 36.2787 27.7886 36.1994 27.6968C36.4375 27.4607 36.6755 27.2114 36.9004 26.9622C37.6411 26.1096 38.2495 25.152 38.7389 24.0896C38.977 24.1814 39.1887 24.2994 39.3871 24.47V24.4568ZM38.1173 17.7409C38.7522 18.9083 38.9109 20.2725 38.5538 21.5842C38.4215 22.0433 38.2892 22.4761 38.1305 22.8959C37.985 23.2632 37.8395 23.6042 37.6676 23.9453C37.1517 24.9946 36.53 25.8735 35.829 26.6081C35.7893 26.6605 35.7364 26.6999 35.6835 26.7523C35.419 27.0278 35.1412 27.2901 34.8502 27.5263C34.6915 27.6574 34.5328 27.7886 34.3608 27.9067C33.7921 28.3264 33.1969 28.6937 32.5884 28.9823C32.3768 29.0872 32.1652 29.1921 31.9535 29.2708C32.2578 28.9954 32.5355 28.6937 32.8133 28.3658C33.2498 27.8411 33.6201 27.2639 33.9376 26.6474C34.6915 25.1783 35.0883 23.4862 35.0883 21.7154C35.0883 20.784 34.9825 19.879 34.7709 19.0132C34.7444 18.8165 34.718 18.6197 34.6783 18.4229C34.5063 17.6228 34.1757 16.8358 33.7259 16.1012C35.6703 15.3798 37.1517 15.9176 38.1305 17.7146L38.1173 17.7409ZM21.7688 16.639C21.954 16.3373 22.1656 16.0487 22.3773 15.7733C22.4169 15.7208 22.4566 15.6815 22.4963 15.629C22.4963 15.6159 22.5228 15.6028 22.536 15.5896C23.7661 14.3173 25.7633 13.5827 27.9987 13.5565C27.9987 13.5565 28.0251 13.5565 28.0384 13.5565C28.6733 13.5565 29.3346 13.7139 29.9695 14.0025C30.7367 14.4222 31.4377 15.0125 32.0329 15.7339C32.2578 15.9963 32.4562 16.2848 32.6413 16.5865C33.2498 17.5572 33.6863 18.6984 33.9111 19.9314C33.8979 20.4168 33.8185 20.9152 33.6466 21.453C33.1043 23.1714 31.98 24.4568 30.3002 25.2832C29.0304 25.9128 27.9061 26.0309 27.8797 26.0309L27.4035 26.0703C29.0172 24.811 29.7446 23.6567 30.0621 22.791C30.1415 22.5811 30.2076 22.3581 30.234 22.1351C30.3399 21.5055 30.234 21.1251 30.234 21.1251C29.9827 19.6297 28.6733 18.5016 27.0993 18.5016C25.4327 18.5016 24.0703 19.7609 23.9248 21.3743C23.9248 21.4137 23.9248 21.4399 23.9116 21.4792C23.6999 23.919 27.0331 26.3588 27.0331 26.3588C27.0331 26.3588 27.0464 26.3588 27.0596 26.3457L27.6019 26.7655H27.5754C27.1522 26.7655 26.676 26.6999 26.1866 26.5818C25.512 26.4244 24.4936 26.0703 23.4883 25.3226C22.364 24.4962 21.0149 22.9484 20.9355 20.338C20.8958 19.0657 21.1075 17.9638 21.544 17.0194C21.6233 16.8751 21.7027 16.7439 21.782 16.6128L21.7688 16.639ZM27.0993 23.0271C26.3453 23.0271 25.7369 22.4237 25.7369 21.676C25.7369 20.9283 26.3453 20.3249 27.0993 20.3249C27.8532 20.3249 28.4616 20.9283 28.4616 21.676C28.4616 22.4237 27.8532 23.0271 27.0993 23.0271ZM15.7241 19.656C16.1077 17.9507 16.8352 16.8489 17.8801 16.3898C18.3034 16.2061 18.7399 16.1274 19.1631 16.1274C19.7451 16.1274 20.3006 16.2586 20.7239 16.4029C19.8377 17.9638 19.3615 19.8002 19.3615 21.7285C19.3615 23.5124 19.7716 25.2176 20.5255 26.6999C20.8297 27.3033 21.2001 27.8673 21.6233 28.3789C22.0466 28.8904 22.5095 29.3364 22.9989 29.7168C22.6153 29.5594 22.2318 29.3889 21.8614 29.2053C21.1207 28.838 20.4065 28.392 19.7319 27.8804C19.6128 27.7886 19.4938 27.6968 19.388 27.6181C19.1102 27.3951 18.8325 27.159 18.5811 26.9097C18.4886 26.831 18.4092 26.7523 18.3298 26.6605C18.0785 26.4113 17.8404 26.1621 17.6288 25.8997C17.1262 25.3095 16.6236 24.588 16.2268 23.7485C16.0813 23.4337 15.949 23.1058 15.8564 22.7647C15.5786 21.8203 15.486 20.784 15.7374 19.6691L15.7241 19.656ZM15.248 24.0896C15.6315 24.9422 16.1606 25.7686 16.822 26.5556C16.9675 26.7261 17.113 26.8966 17.2717 27.054C17.4833 27.277 17.7082 27.5131 17.9462 27.723C17.642 27.9722 17.2717 28.1559 16.8616 28.2346C16.7294 28.2608 16.5971 28.2739 16.4648 28.2739C16.2797 28.2739 16.0813 28.2477 15.8961 28.2083C15.5654 28.1296 15.2612 27.9722 14.9966 27.7492C14.5866 27.4082 14.2956 26.9229 14.203 26.3982C14.0443 25.4669 14.4676 24.5749 15.2347 24.1027L15.248 24.0896Z" fill="#660819"/>
</g>
<defs>
<clipPath id="clip0_126_193">
<rect width="34.8" height="35.6" fill="white" transform="translate(9.6001 11.5757)"/>
</clipPath>
</defs>
</svg>
