<svg width="110" height="106" viewBox="0 0 110 106" fill="none" xmlns="http://www.w3.org/2000/svg">
<g clip-path="url(#clip0_133_889)">
<path d="M56.8182 0.00113362L52.4197 3.67236L56.4004 7.75335L60.7989 4.08212L56.8182 0.00113362Z" fill="white"/>
<path d="M56.7748 0.784341L53.2649 3.71387L56.4408 6.96978L59.9507 4.04025L56.7748 0.784341Z" fill="#EA1C57"/>
<path d="M65.2703 1.0824L60.6704 4.00244L63.836 8.26939L68.4359 5.34934L65.2703 1.0824Z" fill="white"/>
<path d="M65.1244 1.80797L61.4543 4.1377L63.9805 7.54275L67.6505 5.21302L65.1244 1.80797Z" fill="#EA1C57"/>
<path d="M73.4261 3.19354L68.3589 5.32275L70.6192 9.9256L75.6864 7.79638L73.4261 3.19354Z" fill="white"/>
<path d="M73.1423 3.87184L69.0979 5.57129L70.9019 9.24493L74.9464 7.54547L73.1423 3.87184Z" fill="#EA1C57"/>
<path d="M81.1516 6.40432L75.6296 7.73389L77.0411 12.75L82.5631 11.4205L81.1516 6.40432Z" fill="white"/>
<path d="M80.7376 7.0449L76.3308 8.10596L77.4571 12.1085L81.8639 11.0475L80.7376 7.0449Z" fill="#EA1C57"/>
<path d="M88.2588 10.7439L82.5889 11.3359L83.2174 16.4865L88.8873 15.8945L88.2588 10.7439Z" fill="white"/>
<path d="M87.751 11.3244L83.2261 11.7969L83.7276 15.9067L88.2525 15.4342L87.751 11.3244Z" fill="#EA1C57"/>
<path d="M94.5155 15.9929L88.8103 15.9072L88.7194 21.0898L94.4246 21.1755L94.5155 15.9929Z" fill="white"/>
<path d="M93.9312 16.5078L89.3782 16.4395L89.3056 20.5748L93.8586 20.6432L93.9312 16.5078Z" fill="#EA1C57"/>
<path d="M99.8859 21.7271L94.2126 21.1626L93.6133 26.3162L99.2865 26.8807L99.8859 21.7271Z" fill="white"/>
<path d="M99.2514 22.1908L94.7239 21.7402L94.2457 25.8524L98.7731 26.303L99.2514 22.1908Z" fill="#EA1C57"/>
<path d="M104.419 28.5452L99.1914 26.9233L97.4699 31.6715L102.698 33.2934L104.419 28.5452Z" fill="white"/>
<path d="M103.715 28.8595L99.5439 27.5654L98.1698 31.3557L102.341 32.6498L103.715 28.8595Z" fill="#EA1C57"/>
<path d="M107.682 35.7404L102.633 33.1089L99.8396 37.6947L104.888 40.3263L107.682 35.7404Z" fill="white"/>
<path d="M106.889 35.9376L102.859 33.8374L100.631 37.4964L104.66 39.5965L106.889 35.9376Z" fill="#EA1C57"/>
<path d="M109.221 43.4116L104.581 40.1997L101.172 44.414L105.811 47.6259L109.221 43.4116Z" fill="white"/>
<path d="M108.409 43.514L104.706 40.9507L101.985 44.3132L105.688 46.8765L108.409 43.514Z" fill="#EA1C57"/>
<path d="M109.999 51.2189L106.054 47.292L101.886 50.8751L105.83 54.802L109.999 51.2189Z" fill="white"/>
<path d="M109.179 51.1838L106.03 48.0498L102.704 50.9087L105.853 54.0427L109.179 51.1838Z" fill="#EA1C57"/>
<path d="M109.468 58.919L106.083 54.5679L101.464 57.6424L104.849 61.9935L109.468 58.919Z" fill="white"/>
<path d="M108.659 58.7894L105.957 55.3169L102.272 57.7701L104.974 61.2426L108.659 58.7894Z" fill="#EA1C57"/>
<path d="M44.5769 4.4518L48.9707 7.63184L52.4181 3.55606L48.0243 0.376026L44.5769 4.4518Z" fill="white"/>
<path d="M45.3699 4.36078L48.8755 6.89795L51.6265 3.64545L48.1209 1.10828L45.3699 4.36078Z" fill="#EA1C57"/>
<path d="M37.1813 6.46427L42.0945 8.88281L44.6619 4.41992L39.7488 2.00138L37.1813 6.46427Z" fill="white"/>
<path d="M37.9369 6.25712L41.8584 8.1875L43.9075 4.62556L39.9861 2.69518L37.9369 6.25712Z" fill="#EA1C57"/>
<path d="M30.0696 9.68328L35.4907 11.3301L37.239 6.40552L31.8179 4.75872L30.0696 9.68328Z" fill="white"/>
<path d="M30.7948 9.35228L35.1211 10.6665L36.5161 6.73704L32.1898 5.42282L30.7948 9.35228Z" fill="#EA1C57"/>
<path d="M23.4538 13.7901L29.0728 14.7085L30.0477 9.60425L24.4288 8.6859L23.4538 13.7901Z" fill="white"/>
<path d="M24.1186 13.3672L28.6028 14.1001L29.3807 10.0273L24.8966 9.29437L24.1186 13.3672Z" fill="#EA1C57"/>
<path d="M17.5753 18.7491L23.2751 18.9932L23.5342 13.8154L17.8344 13.5714L17.5753 18.7491Z" fill="white"/>
<path d="M18.1759 18.2506L22.7246 18.4453L22.9313 14.3138L18.3826 14.1191L18.1759 18.2506Z" fill="#EA1C57"/>
<path d="M12.3373 24.1489L18.0376 23.9141L17.7883 18.7359L12.088 18.9707L12.3373 24.1489Z" fill="white"/>
<path d="M12.8864 23.602L17.4355 23.4146L17.2366 19.2827L12.6875 19.4701L12.8864 23.602Z" fill="#EA1C57"/>
<path d="M8.50296 30.3646L13.8303 29.0479L12.4327 24.2095L7.10537 25.5263L8.50296 30.3646Z" fill="white"/>
<path d="M8.90043 29.7435L13.1511 28.6929L12.0355 24.8306L7.78477 25.8812L8.90043 29.7435Z" fill="#EA1C57"/>
<path d="M5.83202 37.2503L11.0486 34.9155L8.57018 30.1773L3.35362 32.5121L5.83202 37.2503Z" fill="white"/>
<path d="M6.10802 36.5381L10.2712 34.6748L8.29376 30.8943L4.13054 32.7576L6.10802 36.5381Z" fill="#EA1C57"/>
<path d="M4.4162 44.4845L9.26367 41.5469L6.14535 37.1439L1.29788 40.0815L4.4162 44.4845Z" fill="white"/>
<path d="M4.5913 43.7424L8.45996 41.3979L5.9719 37.8849L2.10324 40.2293L4.5913 43.7424Z" fill="#EA1C57"/>
<path d="M3.91496 51.6445L8.11719 47.9531L4.19877 44.1362L-0.00345725 47.8276L3.91496 51.6445Z" fill="white"/>
<path d="M3.94562 50.8869L7.29932 47.9409L4.17287 44.8955L0.819171 47.8415L3.94562 50.8869Z" fill="#EA1C57"/>
<path d="M4.40532 58.881L8.07739 54.7339L3.67523 51.3985L0.0031575 55.5456L4.40532 58.881Z" fill="white"/>
<path d="M4.33063 58.1261L7.26123 54.8164L3.74881 52.1552L0.818216 55.4649L4.33063 58.1261Z" fill="#EA1C57"/>
<path d="M53.3551 105.999L57.7537 102.328L53.7729 98.2467L49.3744 101.918L53.3551 105.999Z" fill="white"/>
<path d="M53.3986 105.216L56.9084 102.286L53.7325 99.0302L50.2226 101.96L53.3986 105.216Z" fill="#EA1C57"/>
<path d="M44.9003 104.919L49.5002 101.999L46.3347 97.7321L41.7348 100.652L44.9003 104.919Z" fill="white"/>
<path d="M45.0463 104.194L48.7163 101.864L46.1902 98.4587L42.5202 100.788L45.0463 104.194Z" fill="#EA1C57"/>
<path d="M36.7572 102.806L41.8245 100.677L39.5641 96.0739L34.4969 98.2031L36.7572 102.806Z" fill="white"/>
<path d="M37.04 102.125L41.0845 100.426L39.2805 96.7521L35.236 98.4516L37.04 102.125Z" fill="#EA1C57"/>
<path d="M29.0315 99.5967L34.5535 98.2671L33.142 93.2509L27.62 94.5805L29.0315 99.5967Z" fill="white"/>
<path d="M29.4455 98.9561L33.8523 97.895L32.726 93.8925L28.3192 94.9535L29.4455 98.9561Z" fill="#EA1C57"/>
<path d="M21.9172 95.258L27.5872 94.666L26.9587 89.5154L21.2887 90.1074L21.9172 95.258Z" fill="white"/>
<path d="M22.4275 94.678L26.9524 94.2056L26.4509 90.0957L21.926 90.5682L22.4275 94.678Z" fill="#EA1C57"/>
<path d="M15.652 89.9993L21.3572 90.085L21.4481 84.9023L15.7429 84.8167L15.652 89.9993Z" fill="white"/>
<path d="M16.2385 89.4868L20.7915 89.5552L20.8641 85.4198L16.3111 85.3514L16.2385 89.4868Z" fill="#EA1C57"/>
<path d="M10.2916 84.2787L15.9648 84.8433L16.5642 79.6897L10.891 79.1251L10.2916 84.2787Z" fill="white"/>
<path d="M10.9264 83.8151L15.4539 84.2656L15.9321 80.1534L11.4046 79.7029L10.9264 83.8151Z" fill="#EA1C57"/>
<path d="M5.75507 77.4445L10.9832 79.0664L12.7046 74.3183L7.47653 72.6964L5.75507 77.4445Z" fill="white"/>
<path d="M6.45718 77.1292L10.6287 78.4233L12.0029 74.633L7.83137 73.3389L6.45718 77.1292Z" fill="#EA1C57"/>
<path d="M2.49175 70.2605L7.54053 72.8921L10.3339 68.3063L5.28517 65.6747L2.49175 70.2605Z" fill="white"/>
<path d="M3.28368 70.0654L7.31299 72.1655L9.54181 68.5066L5.5125 66.4064L3.28368 70.0654Z" fill="#EA1C57"/>
<path d="M0.952325 62.5874L5.59204 65.7993L9.00149 61.585L4.36177 58.3732L0.952325 62.5874Z" fill="white"/>
<path d="M1.76443 62.485L5.46729 65.0483L8.18763 61.6858L4.48478 59.1225L1.76443 62.485Z" fill="#EA1C57"/>
<path d="M65.4085 101.731L61.0146 98.5513L57.5672 102.627L61.9611 105.807L65.4085 101.731Z" fill="white"/>
<path d="M64.6167 101.821L61.1111 99.2837L58.36 102.536L61.8656 105.073L64.6167 101.821Z" fill="#EA1C57"/>
<path d="M72.7977 99.7174L67.8845 97.2988L65.3171 101.762L70.2302 104.18L72.7977 99.7174Z" fill="white"/>
<path d="M72.0433 99.9231L68.1218 97.9927L66.0727 101.555L69.9942 103.485L72.0433 99.9231Z" fill="#EA1C57"/>
<path d="M79.9079 96.4993L74.4868 94.8525L72.7385 99.7771L78.1596 101.424L79.9079 96.4993Z" fill="white"/>
<path d="M79.1849 96.8308L74.8586 95.5166L73.4636 99.4461L77.7899 100.76L79.1849 96.8308Z" fill="#EA1C57"/>
<path d="M86.5384 92.3886L80.9194 91.4702L79.9445 96.5745L85.5634 97.4928L86.5384 92.3886Z" fill="white"/>
<path d="M85.8736 92.8115L81.3894 92.0786L80.6115 96.1514L85.0956 96.8843L85.8736 92.8115Z" fill="#EA1C57"/>
<path d="M92.4093 87.4351L86.7095 87.1919L86.4496 92.3696L92.1494 92.6129L92.4093 87.4351Z" fill="white"/>
<path d="M91.8063 87.9345L87.2576 87.7397L87.0508 91.8712L91.5996 92.066L91.8063 87.9345Z" fill="#EA1C57"/>
<path d="M97.6458 82.0362L91.9456 82.2725L92.1933 87.4507L97.8936 87.2144L97.6458 82.0362Z" fill="white"/>
<path d="M97.0965 82.5846L92.5474 82.772L92.7463 86.9038L97.2954 86.7164L97.0965 82.5846Z" fill="#EA1C57"/>
<path d="M101.479 75.8219L96.1521 77.1387L97.5497 81.977L102.877 80.6602L101.479 75.8219Z" fill="white"/>
<path d="M101.082 76.443L96.8313 77.4937L97.947 81.3559L102.198 80.3053L101.082 76.443Z" fill="#EA1C57"/>
<path d="M104.153 68.9264L98.9365 71.2612L101.415 75.9995L106.631 73.6647L104.153 68.9264Z" fill="white"/>
<path d="M103.876 69.6411L99.7126 71.5044L101.69 75.2849L105.853 73.4216L103.876 69.6411Z" fill="#EA1C57"/>
<path d="M105.567 61.6932L100.719 64.6309L103.838 69.0338L108.685 66.0962L105.567 61.6932Z" fill="white"/>
<path d="M105.394 62.4344L101.525 64.7788L104.013 68.2919L107.882 65.9474L105.394 62.4344Z" fill="#EA1C57"/>
</g>
<defs>
<clipPath id="clip0_133_889">
<rect width="110" height="106" fill="white"/>
</clipPath>
</defs>
</svg>
