<svg width="48" height="48" viewBox="0 0 48 48" fill="none" xmlns="http://www.w3.org/2000/svg">
<path d="M15 48C10.8222 48 7.27733 46.544 4.36533 43.632C1.45334 40.72 -0.00177615 37.1769 1.62701e-06 33.0027C1.62701e-06 31.0027 0.377779 29.0916 1.13333 27.2693C1.88889 25.4471 2.97778 23.824 4.4 22.4L22.4 4.4C23.8222 2.97778 25.4444 1.88889 27.2667 1.13333C29.0889 0.377778 31 0 33 0C37.1778 0 40.7227 1.45511 43.6347 4.36533C46.5467 7.27556 48.0018 10.8204 48 15C48 17 47.6222 18.9111 46.8667 20.7333C46.1111 22.5556 45.0222 24.1778 43.6 25.6L25.6 43.6C24.1778 45.0222 22.5556 46.1111 20.7333 46.8667C18.9111 47.6222 17 48 15 48ZM32.7333 28.9333L39.8667 21.8667C40.7556 20.9778 41.4444 19.9333 41.9333 18.7333C42.4222 17.5333 42.6667 16.2889 42.6667 15C42.6667 12.3333 41.7227 10.056 39.8347 8.168C37.9467 6.28 35.6684 5.33511 33 5.33333C31.7111 5.33333 30.4667 5.57778 29.2667 6.06667C28.0667 6.55556 27.0222 7.24445 26.1333 8.13333L19.0667 15.2667L32.7333 28.9333ZM15 42.6667C16.2889 42.6667 17.5333 42.4222 18.7333 41.9333C19.9333 41.4444 20.9778 40.7556 21.8667 39.8667L28.9333 32.7333L15.2667 19.0667L8.13334 26.1333C7.24445 27.0222 6.55556 28.0667 6.06667 29.2667C5.57778 30.4667 5.33333 31.7111 5.33333 33C5.33333 35.6667 6.27822 37.9449 8.168 39.8347C10.0578 41.7244 12.3351 42.6684 15 42.6667Z" fill="white"/>
</svg>
