<svg width="51" height="49" viewBox="0 0 51 49" fill="none" xmlns="http://www.w3.org/2000/svg">
<path d="M48.9778 8.44159L26.1028 0.816587C25.7115 0.686138 25.2885 0.686138 24.8971 0.816587L2.02215 8.44159C1.64258 8.56812 1.31244 8.81088 1.07852 9.13547C0.844586 9.46006 0.71872 9.85004 0.71875 10.2501V29.3126C0.71875 29.8182 0.919586 30.3031 1.27708 30.6606C1.63457 31.0181 2.11943 31.2189 2.625 31.2189C3.13057 31.2189 3.61543 31.0181 3.97292 30.6606C4.33041 30.3031 4.53125 29.8182 4.53125 29.3126V12.8951L12.5351 15.5614C10.4086 18.997 9.73237 23.136 10.6549 27.0697C11.5775 31.0034 14.0234 34.4102 17.4556 36.5421C13.1666 38.2244 9.45891 41.2672 6.74726 45.4276C6.60624 45.6372 6.50828 45.8727 6.45909 46.1205C6.4099 46.3683 6.41045 46.6234 6.46071 46.871C6.51097 47.1186 6.60995 47.3537 6.75187 47.5627C6.8938 47.7717 7.07586 47.9504 7.28745 48.0884C7.49905 48.2264 7.73597 48.321 7.98444 48.3666C8.23291 48.4123 8.48797 48.4081 8.73481 48.3543C8.98164 48.3005 9.21532 48.1981 9.42225 48.0532C9.62919 47.9083 9.80526 47.7237 9.94023 47.5102C13.5311 42.0011 19.2022 38.8439 25.5 38.8439C31.7978 38.8439 37.4689 42.0011 41.0598 47.5102C41.3393 47.9257 41.7712 48.2145 42.2621 48.3142C42.7529 48.4138 43.2632 48.3163 43.6827 48.0427C44.1022 47.7691 44.3972 47.3414 44.5039 46.852C44.6105 46.3626 44.5203 45.851 44.2527 45.4276C41.5411 41.2672 37.8191 38.2244 33.5444 36.5421C36.9733 34.4103 39.4169 31.0057 40.3393 27.0749C41.2617 23.1441 40.5876 19.0079 38.4649 15.5733L48.9778 12.0706C49.3575 11.9441 49.6877 11.7014 49.9217 11.3768C50.1557 11.0522 50.2817 10.6622 50.2817 10.2621C50.2817 9.8619 50.1557 9.47189 49.9217 9.14729C49.6877 8.82269 49.3575 8.57996 48.9778 8.4535V8.44159ZM36.9375 23.5939C36.938 25.4021 36.5098 27.1847 35.688 28.7953C34.8662 30.406 33.6742 31.7989 32.2098 32.8597C30.7455 33.9205 29.0505 34.6189 27.2639 34.8978C25.4773 35.1767 23.6501 35.028 21.9321 34.4639C20.2141 33.8998 18.6543 32.9365 17.3808 31.6529C16.1072 30.3693 15.1561 28.802 14.6056 27.0796C14.055 25.3573 13.9206 23.5289 14.2135 21.7446C14.5064 19.9602 15.2182 18.2708 16.2904 16.8148L24.8971 19.6742C25.2885 19.8046 25.7115 19.8046 26.1028 19.6742L34.7096 16.8148C36.1577 18.7783 36.9385 21.1542 36.9375 23.5939ZM25.5 15.8664L8.65351 10.2501L25.5 4.63385L42.3465 10.2501L25.5 15.8664Z" fill="white"/>
</svg>
