<svg width="43" height="48" viewBox="0 0 43 48" fill="none" xmlns="http://www.w3.org/2000/svg">
<path d="M21.3336 40C22.4891 40 23.4447 39.6222 24.2002 38.8667C24.9558 38.1111 25.3336 37.1556 25.3336 36C25.3336 34.8444 24.9558 33.8889 24.2002 33.1333C23.4447 32.3778 22.4891 32 21.3336 32C20.178 32 19.2225 32.3778 18.4669 33.1333C17.7114 33.8889 17.3336 34.8444 17.3336 36C17.3336 37.1556 17.7114 38.1111 18.4669 38.8667C19.2225 39.6222 20.178 40 21.3336 40ZM21.3336 28C22.4891 28 23.4447 27.6222 24.2002 26.8667C24.9558 26.1111 25.3336 25.1556 25.3336 24C25.3336 22.8444 24.9558 21.8889 24.2002 21.1333C23.4447 20.3778 22.4891 20 21.3336 20C20.178 20 19.2225 20.3778 18.4669 21.1333C17.7114 21.8889 17.3336 22.8444 17.3336 24C17.3336 25.1556 17.7114 26.1111 18.4669 26.8667C19.2225 27.6222 20.178 28 21.3336 28ZM21.3336 16C22.4891 16 23.4447 15.6222 24.2002 14.8667C24.9558 14.1111 25.3336 13.1556 25.3336 12C25.3336 10.8444 24.9558 9.88889 24.2002 9.13333C23.4447 8.37778 22.4891 8 21.3336 8C20.178 8 19.2225 8.37778 18.4669 9.13333C17.7114 9.88889 17.3336 10.8444 17.3336 12C17.3336 13.1556 17.7114 14.1111 18.4669 14.8667C19.2225 15.6222 20.178 16 21.3336 16ZM8.00025 32V28.9333C5.73358 28.3111 3.83402 27.0667 2.30158 25.2C0.769133 23.3333 0.00202192 21.1556 0.000244141 18.6667H8.00025V15.6C5.73358 14.9778 3.83402 13.7333 2.30158 11.8667C0.769133 10 0.00202192 7.82222 0.000244141 5.33333H8.00025C8.00025 3.86667 8.52291 2.61156 9.56824 1.568C10.6136 0.524445 11.8687 0.00177778 13.3336 0H29.3336C30.8002 0 32.0562 0.522667 33.1016 1.568C34.1469 2.61333 34.6687 3.86844 34.6669 5.33333H42.6669C42.6669 7.82222 41.9007 10 40.3683 11.8667C38.8358 13.7333 36.9354 14.9778 34.6669 15.6V18.6667H42.6669C42.6669 21.1556 41.9007 23.3333 40.3683 25.2C38.8358 27.0667 36.9354 28.3111 34.6669 28.9333V32H42.6669C42.6669 34.4889 41.9007 36.6667 40.3683 38.5333C38.8358 40.4 36.9354 41.6444 34.6669 42.2667V42.6667C34.6669 44.1333 34.1451 45.3893 33.1016 46.4347C32.058 47.48 30.802 48.0018 29.3336 48H13.3336C11.8669 48 10.6118 47.4782 9.56824 46.4347C8.52469 45.3911 8.00202 44.1351 8.00025 42.6667V42.2667C5.73358 41.6444 3.83402 40.4 2.30158 38.5333C0.769133 36.6667 0.00202192 34.4889 0.000244141 32H8.00025ZM13.3336 42.6667H29.3336V5.33333H13.3336V42.6667Z" fill="white"/>
</svg>
